<?xml version="1.0" encoding="UTF-8"?>
<svg width="199px" height="25px" viewBox="0 0 199 25" version="1.1" xmlns="http://www.w3.org/2000/svg" xmlns:xlink="http://www.w3.org/1999/xlink">
    <!-- Generator: Sketch 52.3 (67297) - http://www.bohemiancoding.com/sketch -->
    <title>Group 2</title>
    <desc>Created with Sketch.</desc>
    <g id="Landing-Page" stroke="none" stroke-width="1" fill="none" fill-rule="evenodd">
        <g id="Landing-Page-Copy" transform="translate(-30.000000, -31.000000)">
            <g id="Первыйэкран">
                <g id="Menu">
                    <g id="Group-2" transform="translate(30.000000, 31.000000)">
                        <path d="M39,3.43428571 L49.451645,3.43428571 L49.451645,8.18428571 L44.664632,8.18428571 L44.664632,10.1928571 L49.3718615,10.1928571 L49.3718615,14.6985714 L44.664632,14.6985714 L44.664632,16.7885714 L49.6378066,16.7885714 L49.6378066,21.5385714 L39,21.5385714 L39,3.43428571 Z M52.4423191,3.43428571 L58.1867347,3.43428571 L58.1867347,7.61428571 L61.5376438,3.43428571 L68.4788126,3.43428571 L62.2291012,11.7128571 L68.7979468,21.5385714 L61.9631561,21.5385714 L58.1867347,15.9471429 L58.1867347,21.5385714 L52.4423191,21.5385714 L52.4423191,3.43428571 Z M67.6132818,12.5 C67.6132818,11.1971363 67.8570624,9.96667246 68.344631,8.80857143 C68.8321996,7.6504704 69.4970559,6.64167096 70.3392198,5.78214286 C71.1813837,4.92261475 72.1698033,4.24405011 73.3045084,3.74642857 C74.4392134,3.24880704 75.6448194,3 76.9213626,3 C78.1979058,3 79.4035118,3.24880704 80.5382169,3.74642857 C81.6729219,4.24405011 82.6613416,4.92261475 83.5035055,5.78214286 C84.3456694,6.64167096 85.0105257,7.6504704 85.4980942,8.80857143 C85.9856628,9.96667246 86.2294434,11.1971363 86.2294434,12.5 C86.2294434,13.8028637 85.9856628,15.0333275 85.4980942,16.1914286 C85.0105257,17.3495296 84.3456694,18.358329 83.5035055,19.2178571 C82.6613416,20.0773852 81.6729219,20.7559499 80.5382169,21.2535714 C79.4035118,21.751193 78.1979058,22 76.9213626,22 C75.6448194,22 74.4392134,21.751193 73.3045084,21.2535714 C72.1698033,20.7559499 71.1813837,20.0773852 70.3392198,19.2178571 C69.4970559,18.358329 68.8321996,17.3495296 68.344631,16.1914286 C67.8570624,15.0333275 67.6132818,13.8028637 67.6132818,12.5 Z M73.1981303,12.5 C73.1981303,13.0247645 73.2956426,13.5178548 73.49067,13.9792857 C73.6856974,14.4407166 73.9516399,14.8433316 74.2885055,15.1871429 C74.625371,15.5309541 75.0198524,15.80238 75.4719615,16.0014286 C75.9240705,16.2004772 76.4071994,16.3 76.9213626,16.3 C77.4355259,16.3 77.9186547,16.2004772 78.3707638,16.0014286 C78.8228728,15.80238 79.2173542,15.5309541 79.5542198,15.1871429 C79.8910853,14.8433316 80.1570278,14.4407166 80.3520553,13.9792857 C80.5470827,13.5178548 80.6445949,13.0247645 80.6445949,12.5 C80.6445949,11.9752355 80.5470827,11.4821452 80.3520553,11.0207143 C80.1570278,10.5592834 79.8910853,10.1566684 79.5542198,9.81285714 C79.2173542,9.4690459 78.8228728,9.19762004 78.3707638,8.99857143 C77.9186547,8.79952281 77.4355259,8.7 76.9213626,8.7 C76.4071994,8.7 75.9240705,8.79952281 75.4719615,8.99857143 C75.0198524,9.19762004 74.625371,9.4690459 74.2885055,9.81285714 C73.9516399,10.1566684 73.6856974,10.5592834 73.49067,11.0207143 C73.2956426,11.4821452 73.1981303,11.9752355 73.1981303,12.5 Z M88.9009833,3.43428571 L93.5550237,3.43428571 L98.4484148,10.41 L98.4484148,3.43428571 L104.006669,3.43428571 L104.006669,21.5385714 L99.3260338,21.5385714 L94.4592373,14.59 L94.4592373,21.5385714 L88.9009833,21.5385714 L88.9009833,3.43428571 Z M106.678209,12.5 C106.678209,11.1971363 106.921989,9.96667246 107.409558,8.80857143 C107.897126,7.6504704 108.561983,6.64167096 109.404147,5.78214286 C110.246311,4.92261475 111.23473,4.24405011 112.369435,3.74642857 C113.50414,3.24880704 114.709746,3 115.986289,3 C117.262833,3 118.468439,3.24880704 119.603144,3.74642857 C120.737849,4.24405011 121.726268,4.92261475 122.568432,5.78214286 C123.410596,6.64167096 124.075452,7.6504704 124.563021,8.80857143 C125.05059,9.96667246 125.29437,11.1971363 125.29437,12.5 C125.29437,13.8028637 125.05059,15.0333275 124.563021,16.1914286 C124.075452,17.3495296 123.410596,18.358329 122.568432,19.2178571 C121.726268,20.0773852 120.737849,20.7559499 119.603144,21.2535714 C118.468439,21.751193 117.262833,22 115.986289,22 C114.709746,22 113.50414,21.751193 112.369435,21.2535714 C111.23473,20.7559499 110.246311,20.0773852 109.404147,19.2178571 C108.561983,18.358329 107.897126,17.3495296 107.409558,16.1914286 C106.921989,15.0333275 106.678209,13.8028637 106.678209,12.5 Z M112.263057,12.5 C112.263057,13.0247645 112.360569,13.5178548 112.555597,13.9792857 C112.750624,14.4407166 113.016567,14.8433316 113.353432,15.1871429 C113.690298,15.5309541 114.084779,15.80238 114.536888,16.0014286 C114.988997,16.2004772 115.472126,16.3 115.986289,16.3 C116.500453,16.3 116.983582,16.2004772 117.435691,16.0014286 C117.8878,15.80238 118.282281,15.5309541 118.619147,15.1871429 C118.956012,14.8433316 119.221955,14.4407166 119.416982,13.9792857 C119.61201,13.5178548 119.709522,13.0247645 119.709522,12.5 C119.709522,11.9752355 119.61201,11.4821452 119.416982,11.0207143 C119.221955,10.5592834 118.956012,10.1566684 118.619147,9.81285714 C118.282281,9.4690459 117.8878,9.19762004 117.435691,8.99857143 C116.983582,8.79952281 116.500453,8.7 115.986289,8.7 C115.472126,8.7 114.988997,8.79952281 114.536888,8.99857143 C114.084779,9.19762004 113.690298,9.4690459 113.353432,9.81285714 C113.016567,10.1566684 112.750624,10.5592834 112.555597,11.0207143 C112.360569,11.4821452 112.263057,11.9752355 112.263057,12.5 Z M127.96591,3.43428571 L132.646545,3.43428571 L137.273991,10.3828571 L141.874842,3.43428571 L146.555477,3.43428571 L146.555477,21.5385714 L140.890845,21.5385714 L140.890845,15.0242857 L137.273991,20.4528571 L133.630542,15.0242857 L133.630542,21.5385714 L127.96591,21.5385714 L127.96591,3.43428571 Z M149.625935,3.43428571 L156.567104,3.43428571 C157.453592,3.43428571 158.264717,3.53833229 159.000502,3.74642857 C159.736287,3.95452485 160.365685,4.26214082 160.888713,4.66928571 C161.411741,5.07643061 161.819519,5.58309221 162.11206,6.18928571 C162.404602,6.79547922 162.55087,7.50571021 162.55087,8.32 C162.55087,8.89905051 162.479952,9.39214082 162.338114,9.79928571 C162.196276,10.2064306 162.045575,10.5457129 161.886007,10.8171429 C161.69098,11.1428588 161.469361,11.4142846 161.221144,11.6314286 C161.611199,11.8847632 161.965789,12.2104742 162.284925,12.6085714 C162.550871,12.9523827 162.794652,13.386664 163.016274,13.9114286 C163.237896,14.4361931 163.348705,15.0785676 163.348705,15.8385714 C163.348705,16.7071472 163.198005,17.4942822 162.896599,18.2 C162.595193,18.9057178 162.165252,19.5073785 161.606765,20.005 C161.048277,20.5026215 160.365691,20.8826177 159.558987,21.145 C158.752282,21.4073823 157.85251,21.5385714 156.859643,21.5385714 L149.625935,21.5385714 L149.625935,3.43428571 Z M155.742674,17.2771429 C157.090136,17.2771429 157.763857,16.7523862 157.763857,15.7028571 C157.763857,14.6533281 157.090136,14.1285714 155.742674,14.1285714 L155.104405,14.1285714 L155.104405,17.2771429 L155.742674,17.2771429 Z M157.0724,8.94428571 C157.0724,8.1119006 156.629162,7.69571429 155.742674,7.69571429 L155.104405,7.69571429 L155.104405,10.1928571 L155.742674,10.1928571 C156.629162,10.1928571 157.0724,9.77667083 157.0724,8.94428571 Z M173.014603,22 C171.897628,22 170.887046,21.8552395 169.982828,21.5657143 C169.07861,21.276189 168.307377,20.8419077 167.669105,20.2628571 C167.030834,19.6838066 166.53884,18.9509568 166.19311,18.0642857 C165.847379,17.1776146 165.674517,16.1371488 165.674517,14.9428571 L165.674517,3.43428571 L171.339149,3.43428571 L171.339149,14.6985714 C171.339149,15.3319079 171.467688,15.8159507 171.724769,16.1507143 C171.981851,16.4854779 172.411791,16.6528571 173.014603,16.6528571 C173.617415,16.6528571 174.047356,16.4854779 174.304437,16.1507143 C174.561519,15.8159507 174.690058,15.3319079 174.690058,14.6985714 L174.690058,3.43428571 L180.381284,3.43428571 L180.381284,14.9428571 C180.381284,16.1371488 180.208422,17.1776146 179.862691,18.0642857 C179.516961,18.9509568 179.020535,19.6838066 178.373398,20.2628571 C177.726262,20.8419077 176.950596,21.276189 176.046378,21.5657143 C175.14216,21.8552395 174.131579,22 173.014603,22 Z M183.371958,21.5385714 L183.371958,3.43428571 L188.291944,3.43428571 C189.958542,3.43428571 191.443388,3.62428381 192.746526,4.00428571 C194.049663,4.38428761 195.148892,4.95428191 196.044246,5.71428571 C196.939599,6.47428951 197.622185,7.41975625 198.092023,8.55071429 C198.561862,9.68167232 198.796778,10.9890402 198.796778,12.4728571 C198.796778,13.9566741 198.561862,15.264042 198.092023,16.395 C197.622185,17.525958 196.939599,18.4714248 196.044246,19.2314286 C195.148892,19.9914324 194.049663,20.5659504 192.746526,20.955 C191.443388,21.3440496 189.958542,21.5385714 188.291944,21.5385714 L183.371958,21.5385714 Z M189.03659,16.3814286 C190.366323,16.3814286 191.394634,16.0602413 192.121554,15.4178571 C192.848475,14.775473 193.21193,13.7938161 193.21193,12.4728571 C193.21193,11.1518982 192.848475,10.1747651 192.121554,9.54142857 C191.394634,8.90809207 190.366323,8.59142857 189.03659,8.59142857 L189.03659,16.3814286 Z" id="EKONOMBUD" fill="#273148"></path>
                        <rect id="Rectangle-Copy-14" fill="#0041F1" x="0" y="0" width="25" height="25"></rect>
                    </g>
                </g>
            </g>
        </g>
    </g>
</svg>