<svg xmlns="http://www.w3.org/2000/svg" xmlns:xlink="http://www.w3.org/1999/xlink"><defs><symbol viewBox="0 0 491.86 491.86" id="add">
<g>
	<g>
		<path d="M465.167,211.614H280.245V26.691c0-8.424-11.439-26.69-34.316-26.69s-34.316,18.267-34.316,26.69v184.924H26.69
			C18.267,211.614,0,223.053,0,245.929s18.267,34.316,26.69,34.316h184.924v184.924c0,8.422,11.438,26.69,34.316,26.69
			s34.316-18.268,34.316-26.69V280.245H465.17c8.422,0,26.69-11.438,26.69-34.316S473.59,211.614,465.167,211.614z" />
	</g>
</g>
</symbol><symbol viewBox="0 0 31.49 31.49" id="arrow">
<path d="M21.205,5.007c-0.429-0.444-1.143-0.444-1.587,0c-0.429,0.429-0.429,1.143,0,1.571l8.047,8.047H1.111
	C0.492,14.626,0,15.118,0,15.737c0,0.619,0.492,1.127,1.111,1.127h26.554l-8.047,8.032c-0.429,0.444-0.429,1.159,0,1.587
	c0.444,0.444,1.159,0.444,1.587,0l9.952-9.952c0.444-0.429,0.444-1.143,0-1.571L21.205,5.007z" />
<g>
</g>
<g>
</g>
<g>
</g>
<g>
</g>
<g>
</g>
<g>
</g>
<g>
</g>
<g>
</g>
<g>
</g>
<g>
</g>
<g>
</g>
<g>
</g>
<g>
</g>
<g>
</g>
<g>
</g>
</symbol><symbol viewBox="0 0 174.239 174.239" id="close">
<path d="M146.537,1.047c-1.396-1.396-3.681-1.396-5.077,0L89.658,52.849c-1.396,1.396-3.681,1.396-5.077,0L32.78,1.047
	c-1.396-1.396-3.681-1.396-5.077,0L1.047,27.702c-1.396,1.396-1.396,3.681,0,5.077l51.802,51.802c1.396,1.396,1.396,3.681,0,5.077
	L1.047,141.46c-1.396,1.396-1.396,3.681,0,5.077l26.655,26.655c1.396,1.396,3.681,1.396,5.077,0l51.802-51.802
	c1.396-1.396,3.681-1.396,5.077,0l51.801,51.801c1.396,1.396,3.681,1.396,5.077,0l26.655-26.655c1.396-1.396,1.396-3.681,0-5.077
	l-51.801-51.801c-1.396-1.396-1.396-3.681,0-5.077l51.801-51.801c1.396-1.396,1.396-3.681,0-5.077L146.537,1.047z" />
<g>
</g>
<g>
</g>
<g>
</g>
<g>
</g>
<g>
</g>
<g>
</g>
<g>
</g>
<g>
</g>
<g>
</g>
<g>
</g>
<g>
</g>
<g>
</g>
<g>
</g>
<g>
</g>
<g>
</g>
</symbol><symbol viewBox="0 -13 511.99989 511" id="cube"><path d="m352 346.496094c-5.523438 0-10 4.480468-10 10 0 5.519531 4.476562 10 10 10 5.519531 0 10-4.480469 10-10 0-5.519532-4.480469-10-10-10zm0 0" /><path d="m266 170.5c0-5.523438-4.480469-10-10-10s-10 4.476562-10 10c0 5.519531 4.480469 10 10 10s10-4.480469 10-10zm0 0" /><path d="m160 366.496094c5.519531 0 10-4.480469 10-10 0-5.519532-4.480469-10-10-10s-10 4.480468-10 10c0 5.519531 4.480469 10 10 10zm0 0" /><path d="m506.058594 414.015625-54.0625-24.019531v-219.496094c0-3.960938-2.371094-7.628906-6.140625-9.230469l-179.855469-77.355469v-73.414062c0-5.523438-4.480469-10-10-10-5.523438 0-10 4.476562-10 10v73.414062l-179.855469 77.355469c-3.574219 1.484375-6.140625 5.105469-6.140625 9.230469v219.496094l-54.0625 24.019531c-5.046875 2.246094-7.320312 8.152344-5.078125 13.199219 2.226563 5.015625 8.117188 7.335937 13.199219 5.078125l56.003906-24.882813 181.984375 78.269532c2.40625 1.035156 5.347657 1.097656 7.902344 0l181.980469-78.269532 56.003906 24.882813c5.101562 2.265625 10.980469-.082031 13.199219-5.078125 2.242187-5.046875-.03125-10.953125-5.078125-13.199219zm-260.058594-308.328125v24.8125c0 5.519531 4.476562 10 10 10 5.519531 0 10-4.480469 10-10v-24.8125l150.6875 64.8125-160.6875 69.113281-160.6875-69.113281zm-113.410156 262.996094c-2.246094-5.046875-8.15625-7.316406-13.199219-5.078125l-39.390625 17.503906v-195.425781l166 71.398437v204.226563l-151.035156-64.960938 32.546875-14.460937c5.046875-2.246094 7.320312-8.15625 5.078125-13.203125zm133.410156 92.625v-204.226563l165.996094-71.398437v195.425781l-39.386719-17.5c-5.050781-2.242187-10.957031.027344-13.199219 5.078125-2.242187 5.046875.03125 10.953125 5.078125 13.199219l32.546875 14.460937zm0 0" /></symbol><symbol viewBox="0 0 511.626 511.626" id="envelope">
<g>
	<g>
		<path d="M49.106,178.729c6.472,4.567,25.981,18.131,58.528,40.685c32.548,22.554,57.482,39.92,74.803,52.099
			c1.903,1.335,5.946,4.237,12.131,8.71c6.186,4.476,11.326,8.093,15.416,10.852c4.093,2.758,9.041,5.852,14.849,9.277
			c5.806,3.422,11.279,5.996,16.418,7.7c5.14,1.718,9.898,2.569,14.275,2.569h0.287h0.288c4.377,0,9.137-0.852,14.277-2.569
			c5.137-1.704,10.615-4.281,16.416-7.7c5.804-3.429,10.752-6.52,14.845-9.277c4.093-2.759,9.229-6.376,15.417-10.852
			c6.184-4.477,10.232-7.375,12.135-8.71c17.508-12.179,62.051-43.11,133.615-92.79c13.894-9.703,25.502-21.411,34.827-35.116
			c9.332-13.699,13.993-28.07,13.993-43.105c0-12.564-4.523-23.319-13.565-32.264c-9.041-8.947-19.749-13.418-32.117-13.418H45.679
			c-14.655,0-25.933,4.948-33.832,14.844C3.949,79.562,0,91.934,0,106.779c0,11.991,5.236,24.985,15.703,38.974
			C26.169,159.743,37.307,170.736,49.106,178.729z" />
		<path d="M483.072,209.275c-62.424,42.251-109.824,75.087-142.177,98.501c-10.849,7.991-19.65,14.229-26.409,18.699
			c-6.759,4.473-15.748,9.041-26.98,13.702c-11.228,4.668-21.692,6.995-31.401,6.995h-0.291h-0.287
			c-9.707,0-20.177-2.327-31.405-6.995c-11.228-4.661-20.223-9.229-26.98-13.702c-6.755-4.47-15.559-10.708-26.407-18.699
			c-25.697-18.842-72.995-51.68-141.896-98.501C17.987,202.047,8.375,193.762,0,184.437v226.685c0,12.57,4.471,23.319,13.418,32.265
			c8.945,8.949,19.701,13.422,32.264,13.422h420.266c12.56,0,23.315-4.473,32.261-13.422c8.949-8.949,13.418-19.694,13.418-32.265
			V184.437C503.441,193.569,493.927,201.854,483.072,209.275z" />
	</g>
</g>
<g>
</g>
<g>
</g>
<g>
</g>
<g>
</g>
<g>
</g>
<g>
</g>
<g>
</g>
<g>
</g>
<g>
</g>
<g>
</g>
<g>
</g>
<g>
</g>
<g>
</g>
<g>
</g>
<g>
</g>
</symbol><symbol viewBox="0 0 42.054 42.054" id="facebook">
<g>
	<path d="M42.054,21.168c0,10.001-6.987,18.354-16.344,20.485V24.185h5.053v-5.833h-5.104V17.05c0-2.5,1.094-4.532,3.697-4.532
		c1.043,0,1.877,0.157,2.555,0.365l0.311-6.094c-1.094-0.312-2.445-0.522-4.217-0.522c-2.291,0-5.053,0.68-7.031,2.554
		c-2.293,2.084-3.23,5.469-3.23,8.541v0.989H14.41v5.833h3.333v17.729C7.694,40.334,0,31.661,0,21.168
		C0,9.555,9.415,0.14,21.028,0.14C32.641,0.139,42.054,9.554,42.054,21.168z" />
</g>
<g>
</g>
<g>
</g>
<g>
</g>
<g>
</g>
<g>
</g>
<g>
</g>
<g>
</g>
<g>
</g>
<g>
</g>
<g>
</g>
<g>
</g>
<g>
</g>
<g>
</g>
<g>
</g>
<g>
</g>
</symbol><symbol viewBox="0 0 511 511.99978" id="hand"><path d="m235.792969 347.265625c3.902343-3.910156 3.902343-10.238281 0-14.148437-3.90625-3.898438-10.234375-3.898438-14.144531 0-3.898438 3.910156-3.898438 10.238281 0 14.148437 3.910156 3.898437 10.238281 3.898437 14.144531 0zm0 0" /><path d="m188.449219 109.96875c0 60.636719 49.332031 109.972656 109.96875 109.972656s109.96875-49.335937 109.96875-109.972656-49.332031-109.96875-109.96875-109.96875-109.96875 49.332031-109.96875 109.96875zm199.945312 0c0 49.613281-40.363281 89.976562-89.976562 89.976562s-89.976563-40.363281-89.976563-89.976562c0-49.609375 40.363282-89.972656 89.976563-89.972656s89.976562 40.363281 89.976562 89.972656zm0 0" /><path d="m115.652344 509.042969c3.875 3.90625 10.183594 3.949219 14.109375.082031l48.46875-47.75c8.234375-8.234375 10.738281-20.425781 7.117187-31.023438l10.425782-10.054687c5.613281-5.421875 13.003906-8.410156 20.816406-8.410156h132.902344c23.578124 0 45.863281-9.054688 62.757812-25.496094.695312-.675781-5.277344 6.359375 90.667969-108.3125 14.230469-16.835937 12.101562-42.117187-4.75-56.363281-16.746094-14.113282-41.832031-12.085938-56.101563 4.460937l-58.992187 60.632813c-7.449219-9.167969-18.808594-14.882813-31.082031-14.882813h-111.480469c-15.863281-6.636719-32.695313-9.996093-50.0625-9.996093-48.140625 0-90.175781 22.234374-112.734375 63.921874-9.503906-1.800781-19.527344 1.074219-26.738282 8.285157l-47.558593 47.699219c-3.882813 3.894531-3.890625 10.195312-.015625 14.101562zm74.792968-227.121094c15.3125 0 30.117188 3.082031 44.011719 9.160156 1.265625.554688 2.628907.839844 4.007813.839844h113.527344c10.839843 0 19.996093 8.839844 19.996093 19.992187 0 11.027344-8.96875 19.996094-19.996093 19.996094h-81.566407c-5.519531 0-9.996093 4.476563-9.996093 9.996094 0 5.523438 4.476562 9.996094 9.996093 9.996094h81.566407c22.050781 0 39.988281-17.9375 39.988281-39.988282 0-1.757812-.125-3.5-.351563-5.226562 57.066406-58.660156 65.113282-66.902344 65.457032-67.3125 7.125-8.410156 19.773437-9.476562 28.1875-2.382812 8.421874 7.121093 9.488281 19.761718 2.34375 28.21875l-89.667969 107.195312c-13.09375 12.570312-30.285157 19.488281-48.457031 19.488281h-132.902344c-13.023438 0-25.351563 4.980469-34.703125 14.015625l-8.496094 8.199219-78.320313-78.316406c18.304688-34.339844 52.652344-53.871094 95.375-53.871094zm-125.320312 66.34375c3.296875-3.296875 8.359375-3.890625 12.378906-1.40625 1.730469 1.054687-3.238281-3.46875 86.589844 86.234375 3.996094 3.996094 3.78125 10.363281.054688 14.089844l-41.320313 40.707031-98.230469-98.980469zm0 0" /><path d="m286.421875 49.988281v11.714844c-11.636719 4.125-19.996094 15.238281-19.996094 28.273437 0 16.535157 13.453125 29.992188 29.992188 29.992188 5.511719 0 9.996093 4.484375 9.996093 9.996094 0 5.511718-4.484374 9.996094-9.996093 9.996094-4.269531 0-8.882813-2.683594-12.980469-7.5625-3.554688-4.226563-9.859375-4.769532-14.085938-1.21875-4.226562 3.554687-4.773437 9.859374-1.21875 14.085937 5.34375 6.355469 11.628907 10.785156 18.289063 13.019531v11.667969c0 5.523437 4.476563 9.996094 9.996094 9.996094s9.996093-4.472657 9.996093-9.996094v-11.714844c11.636719-4.128906 19.996094-15.242187 19.996094-28.273437 0-16.539063-13.453125-29.992188-29.992187-29.992188-5.511719 0-9.996094-4.484375-9.996094-9.996094 0-5.511718 4.484375-10 9.996094-10 3.542969 0 7.28125 1.808594 10.8125 5.226563 3.96875 3.839844 10.296875 3.734375 14.136719-.230469 3.839843-3.96875 3.734374-10.296875-.230469-14.136718-5.074219-4.910157-10.152344-7.6875-14.722657-9.203126v-11.644531c0-5.523437-4.476562-10-9.996093-10s-9.996094 4.476563-9.996094 10zm0 0" /></symbol><symbol viewBox="0 0 89.758 89.758" id="instagram">
<g>
	<path d="M58.255,23.88H31.503c-4.27,0-7.744,3.474-7.744,7.744v26.752c0,4.27,3.474,7.745,7.744,7.745
		h26.752c4.27,0,7.745-3.474,7.745-7.745V31.624C66,27.354,62.526,23.88,58.255,23.88z M44.879,58.906
		c-7.667,0-13.905-6.238-13.905-13.906c0-7.667,6.238-13.905,13.905-13.905c7.668,0,13.906,6.238,13.906,13.905
		C58.785,52.667,52.546,58.906,44.879,58.906z M59.232,33.97c-1.815,0-3.291-1.476-3.291-3.29c0-1.814,1.476-3.29,3.291-3.29
		c1.814,0,3.29,1.476,3.29,3.29C62.522,32.494,61.046,33.97,59.232,33.97z" />
	<path d="M44.879,36.971c-4.426,0-8.03,3.602-8.03,8.028c0,4.428,3.604,8.031,8.03,8.031
		c4.428,0,8.029-3.603,8.029-8.031C52.908,40.574,49.306,36.971,44.879,36.971z" />
	<path d="M44.879,0C20.094,0,0,20.094,0,44.879c0,24.785,20.094,44.879,44.879,44.879
		c24.785,0,44.879-20.094,44.879-44.879C89.758,20.094,69.664,0,44.879,0z M71.875,58.376c0,7.511-6.109,13.62-13.62,13.62H31.503
		c-7.51,0-13.62-6.109-13.62-13.62V31.624c0-7.51,6.11-13.62,13.62-13.62h26.752c7.511,0,13.62,6.11,13.62,13.62V58.376z" />
</g>
<g>
</g>
<g>
</g>
<g>
</g>
<g>
</g>
<g>
</g>
<g>
</g>
<g>
</g>
<g>
</g>
<g>
</g>
<g>
</g>
<g>
</g>
<g>
</g>
<g>
</g>
<g>
</g>
<g>
</g>
</symbol><symbol viewBox="0 0 27 13" id="messenger">
    <!-- Generator: Sketch 52.3 (67297) - http://www.bohemiancoding.com/sketch -->
    <title>Path</title>
    <desc>Created with Sketch.</desc>
    <g id="messenger_Landing-Page" stroke="none" stroke-width="1" fill="none" fill-rule="evenodd">
        <g id="messenger_Landing-Page-Copy" transform="translate(-1210.000000, -3024.000000)" fill="#FFFFFF" fill-rule="nonzero">
            <g id="messenger_Group-61" transform="translate(0.000000, 2514.000000)">
                <g id="messenger_Group-4" transform="translate(852.000000, 486.000000)">
                    <g id="messenger_Group-28" transform="translate(346.000000, 5.000000)">
                        <polygon id="messenger_Path" points="27.2828921 30.7083002 22.7772691 27.1832206 12 31.4484973 24.3315585 19.1833699 28.89167 22.8246417 38.7563197 19" />
                    </g>
                </g>
            </g>
        </g>
    </g>
</symbol><symbol viewBox="0 0 58 14.4" id="more">
<circle cx="7" cy="7.4" r="7" />
<circle cx="51" cy="7.4" r="7" />
<circle cx="29" cy="7.4" r="7" />
<circle cx="7" cy="7.4" r="7" />
<circle cx="51" cy="7.4" r="7" />
<circle cx="29" cy="7.4" r="7" />
</symbol><symbol viewBox="0 0 578.106 578.106" id="phone">
<g>
	<g>
		<path d="M577.83,456.128c1.225,9.385-1.635,17.545-8.568,24.48l-81.396,80.781
			c-3.672,4.08-8.465,7.551-14.381,10.404c-5.916,2.857-11.729,4.693-17.439,5.508c-0.408,0-1.635,0.105-3.676,0.309
			c-2.037,0.203-4.689,0.307-7.953,0.307c-7.754,0-20.301-1.326-37.641-3.979s-38.555-9.182-63.645-19.584
			c-25.096-10.404-53.553-26.012-85.376-46.818c-31.823-20.805-65.688-49.367-101.592-85.68
			c-28.56-28.152-52.224-55.08-70.992-80.783c-18.768-25.705-33.864-49.471-45.288-71.299
			c-11.425-21.828-19.993-41.616-25.705-59.364S4.59,177.362,2.55,164.51s-2.856-22.95-2.448-30.294
			c0.408-7.344,0.612-11.424,0.612-12.24c0.816-5.712,2.652-11.526,5.508-17.442s6.324-10.71,10.404-14.382L98.022,8.756
			c5.712-5.712,12.24-8.568,19.584-8.568c5.304,0,9.996,1.53,14.076,4.59s7.548,6.834,10.404,11.322l65.484,124.236
			c3.672,6.528,4.692,13.668,3.06,21.42c-1.632,7.752-5.1,14.28-10.404,19.584l-29.988,29.988c-0.816,0.816-1.53,2.142-2.142,3.978
			s-0.918,3.366-0.918,4.59c1.632,8.568,5.304,18.36,11.016,29.376c4.896,9.792,12.444,21.726,22.644,35.802
			s24.684,30.293,43.452,48.653c18.36,18.77,34.68,33.354,48.96,43.76c14.277,10.4,26.215,18.053,35.803,22.949
			c9.588,4.896,16.932,7.854,22.031,8.871l7.648,1.531c0.816,0,2.145-0.307,3.979-0.918c1.836-0.613,3.162-1.326,3.979-2.143
			l34.883-35.496c7.348-6.527,15.912-9.791,25.705-9.791c6.938,0,12.443,1.223,16.523,3.672h0.611l118.115,69.768
			C571.098,441.238,576.197,447.968,577.83,456.128z" />
	</g>
</g>
<g>
</g>
<g>
</g>
<g>
</g>
<g>
</g>
<g>
</g>
<g>
</g>
<g>
</g>
<g>
</g>
<g>
</g>
<g>
</g>
<g>
</g>
<g>
</g>
<g>
</g>
<g>
</g>
<g>
</g>
</symbol><symbol viewBox="0 0 314.068 314.068" id="play">
<g>
	<g id="play__x33_56._Play">
		<g>
			<path d="M293.002,78.53C249.646,3.435,153.618-22.296,78.529,21.068C3.434,64.418-22.298,160.442,21.066,235.534
				c43.35,75.095,139.375,100.83,214.465,57.47C310.627,249.639,336.371,153.62,293.002,78.53z M219.834,265.801
				c-60.067,34.692-136.894,14.106-171.576-45.973C13.568,159.761,34.161,82.935,94.23,48.26
				c60.071-34.69,136.894-14.106,171.578,45.971C300.493,154.307,279.906,231.117,219.834,265.801z M213.555,150.652l-82.214-47.949
				c-7.492-4.374-13.535-0.877-13.493,7.789l0.421,95.174c0.038,8.664,6.155,12.191,13.669,7.851l81.585-47.103
				C221.029,162.082,221.045,155.026,213.555,150.652z" />
		</g>
	</g>
</g>
<g>
</g>
<g>
</g>
<g>
</g>
<g>
</g>
<g>
</g>
<g>
</g>
<g>
</g>
<g>
</g>
<g>
</g>
<g>
</g>
<g>
</g>
<g>
</g>
<g>
</g>
<g>
</g>
<g>
</g>
</symbol><symbol viewBox="0 0 362 512" id="pointer">
<g>
	<g>
		<path d="M181,0C81.7,0,1,80.7,1,180c0,33.5,9.3,66.3,26.9,94.7l142.9,230.3c2.7,4.4,7.6,7.1,12.7,7.1c0,0,0.1,0,0.1,0
			c5.2,0,10.1-2.8,12.8-7.3l139.2-232.5c16.6-27.8,25.4-59.7,25.4-92.2C361,80.7,280.3,0,181,0z M309.9,256.8L183.3,468.2
			L53.4,258.8c-14.6-23.6-22.6-50.9-22.6-78.8C30.8,97.3,98.3,29.8,181,29.8S331.1,97.3,331.1,180
			C331.1,207.1,323.7,233.7,309.9,256.8z" />
	</g>
</g>
<g>
	<g>
		<path d="M181,90c-49.6,0-90,40.4-90,90c0,49.3,39.7,90,90,90c50.9,0,90-41.2,90-90C271,130.4,230.6,90,181,90z M181,240.2
			c-33.3,0-60.2-27-60.2-60.2c0-33.1,27.1-60.2,60.2-60.2s60.1,27.1,60.1,60.2C241.1,212.7,214.8,240.2,181,240.2z" />
	</g>
</g>
</symbol><symbol viewBox="0 0 491.858 491.858" id="remove">
<g>
	<g>
		<path d="M465.167,211.613H240.21H26.69c-8.424,0-26.69,11.439-26.69,34.316s18.267,34.316,26.69,34.316h213.52h224.959
			c8.421,0,26.689-11.439,26.689-34.316S473.59,211.613,465.167,211.613z" />
	</g>
	<g>
	</g>
	<g>
	</g>
	<g>
	</g>
	<g>
	</g>
	<g>
	</g>
	<g>
	</g>
	<g>
	</g>
	<g>
	</g>
	<g>
	</g>
	<g>
	</g>
	<g>
	</g>
	<g>
	</g>
	<g>
	</g>
	<g>
	</g>
	<g>
	</g>
</g>
<g>
</g>
<g>
</g>
<g>
</g>
<g>
</g>
<g>
</g>
<g>
</g>
<g>
</g>
<g>
</g>
<g>
</g>
<g>
</g>
<g>
</g>
<g>
</g>
<g>
</g>
<g>
</g>
<g>
</g>
</symbol><symbol viewBox="0 0 191.667 191.667" id="tick">
<path d="M95.833,0C42.991,0,0,42.99,0,95.833s42.991,95.834,95.833,95.834s95.833-42.991,95.833-95.834S148.676,0,95.833,0z
	 M150.862,79.646l-60.207,60.207c-2.56,2.56-5.963,3.969-9.583,3.969c-3.62,0-7.023-1.409-9.583-3.969l-30.685-30.685
	c-2.56-2.56-3.97-5.963-3.97-9.583c0-3.621,1.41-7.024,3.97-9.584c2.559-2.56,5.962-3.97,9.583-3.97c3.62,0,7.024,1.41,9.583,3.971
	l21.101,21.1l50.623-50.623c2.56-2.56,5.963-3.969,9.583-3.969c3.62,0,7.023,1.409,9.583,3.969
	C156.146,65.765,156.146,74.362,150.862,79.646z" />
<g>
</g>
<g>
</g>
<g>
</g>
<g>
</g>
<g>
</g>
<g>
</g>
<g>
</g>
<g>
</g>
<g>
</g>
<g>
</g>
<g>
</g>
<g>
</g>
<g>
</g>
<g>
</g>
<g>
</g>
</symbol><symbol viewBox="-46 0 512 512" id="timer"><path d="m373.824219 170.601562 21.527343-21.53125c11.695313-11.691406 11.695313-30.722656 0-42.421874-11.695312-11.695313-30.726562-11.695313-42.421874 0l-22.984376 22.984374c-23.976562-16.699218-51.308593-28.257812-79.945312-33.804687v-29.828125h20c5.523438 0 10-4.476562 10-10v-26c0-16.542969-13.457031-30-30-30h-80c-16.542969 0-30 13.457031-30 30v26c0 5.523438 4.476562 10 10 10h20v29.828125c-28.632812 5.542969-55.96875 17.105469-79.945312 33.804687l-22.984376-22.984374c-11.691406-11.695313-30.722656-11.695313-42.421874 0-11.695313 11.695312-11.695313 30.726562 0 42.421874l21.527343 21.53125c-29.839843 37.167969-46.175781 83.464844-46.175781 131.398438 0 115.792969 94.207031 210 210 210s210-94.207031 210-210c0-47.933594-16.335938-94.230469-46.175781-131.398438zm-6.753907-49.8125c3.902344-3.898437 10.242188-3.894531 14.140626 0 3.894531 3.898438 3.894531 10.242188 0 14.140626l-20.664063 20.660156c-4.65625-4.78125-9.539063-9.339844-14.617187-13.65625zm-207.070312-90.789062c0-5.515625 4.484375-10 10-10h80c5.515625 0 10 4.484375 10 10v16h-100zm70 36v26.945312c-13.253906-1.242187-26.742188-1.242187-40 0v-26.945312zm-191.210938 54.789062c3.898438-3.894531 10.242188-3.898437 14.140626 0l21.140624 21.144532c-5.078124 4.316406-9.960937 8.875-14.617187 13.65625l-20.664063-20.660156c-3.894531-3.898438-3.894531-10.242188 0-14.140626zm171.210938 371.210938c-104.765625 0-190-85.234375-190-190 0-46.214844 16.777344-90.742188 47.238281-125.386719 8.390625-9.542969 17.753907-18.261719 27.828125-25.925781 25.246094-19.210938 55.128906-31.855469 86.417969-36.570312 9.363281-1.402344 18.957031-2.117188 28.515625-2.117188s19.152344.714844 28.511719 2.117188c31.292969 4.714843 61.175781 17.359374 86.425781 36.570312 10.070312 7.664062 19.433594 16.382812 27.824219 25.925781 30.460937 34.644531 47.238281 79.171875 47.238281 125.386719 0 104.765625-85.234375 190-190 190zm0 0" /><path d="m210 332c16.542969 0 30-13.457031 30-30 0-13.035156-8.359375-24.152344-20-28.28125v-71.71875c0-5.523438-4.476562-10-10-10s-10 4.476562-10 10v71.71875c-11.640625 4.128906-20 15.246094-20 28.28125 0 16.542969 13.457031 30 30 30zm0-40c5.515625 0 10 4.484375 10 10s-4.484375 10-10 10-10-4.484375-10-10 4.484375-10 10-10zm0 0" /><path d="m316.527344 196.5c-.15625-.183594-.3125-.367188-.488282-.539062-.1875-.191407-.386718-.363282-.585937-.535157-17.625-17.4375-39.398437-30.339843-63.027344-37.316406-5.300781-1.5625-10.859375 1.460937-12.421875 6.757813-1.5625 5.296874 1.460938 10.859374 6.757813 12.421874 17.507812 5.171876 33.839843 14.109376 47.761719 26.042969l-6.746094 6.746094c-3.902344 3.90625-3.902344 10.238281 0 14.144531 1.953125 1.953125 4.511718 2.929688 7.074218 2.929688 2.558594 0 5.117188-.976563 7.070313-2.929688l6.761719-6.761718c18.09375 21.039062 28.839844 46.9375 30.933594 74.539062h-9.617188c-5.523438 0-10 4.480469-10 10 0 5.523438 4.476562 10 10 10h9.617188c-2.09375 27.605469-12.839844 53.5-30.933594 74.539062l-6.761719-6.761718c-3.90625-3.902344-10.238281-3.902344-14.144531 0-3.90625 3.90625-3.90625 10.238281 0 14.144531l6.761718 6.761719c-21.039062 18.09375-46.9375 28.839844-74.539062 30.9375v-9.621094c0-5.523438-4.476562-10-10-10s-10 4.476562-10 10v9.617188c-27.601562-2.09375-53.5-12.839844-74.539062-30.933594l6.761718-6.761719c3.90625-3.90625 3.90625-10.238281 0-14.144531-3.90625-3.902344-10.238281-3.902344-14.144531 0l-6.761719 6.761718c-18.09375-21.039062-28.839844-46.9375-30.933594-74.539062h9.617188c5.523438 0 10-4.476562 10-10s-4.476562-10-10-10h-9.617188c2.09375-27.601562 12.839844-53.5 30.933594-74.539062l6.761719 6.761718c1.953125 1.953125 4.511719 2.929688 7.070313 2.929688 2.5625 0 5.121093-.976563 7.074218-2.929688 3.902344-3.90625 3.902344-10.238281 0-14.144531l-6.746094-6.746094c13.921876-11.9375 30.253907-20.871093 47.761719-26.042969 5.296875-1.5625 8.320313-7.125 6.757813-12.421874-1.5625-5.296876-7.117188-8.316407-12.421875-6.757813-23.625 6.972656-45.390625 19.871094-63.011719 37.300781-.207031.175782-.410156.355469-.601562.546875-.171876.171875-.324219.351563-.480469.53125-28.042969 28.304688-43.480469 65.742188-43.480469 105.511719 0 39.765625 15.4375 77.199219 43.472656 105.5.15625.183594.3125.367188.488282.539062.171874.175782.351562.328126.53125.484376 28.304687 28.039062 65.738281 43.476562 105.507812 43.476562 39.765625 0 77.199219-15.433594 105.5-43.46875.183594-.160156.367188-.316406.539062-.492188.171876-.167968.324219-.351562.480469-.527343 28.042969-28.304688 43.480469-65.742188 43.480469-105.511719 0-39.765625-15.4375-77.199219-43.472656-105.5zm0 0" /><path d="m210 172c5.519531 0 10-4.480469 10-10s-4.480469-10-10-10-10 4.480469-10 10 4.480469 10 10 10zm0 0" /></symbol><symbol viewBox="0 0 97.75 97.75" id="youtube">
<g>
	<g>
		<path d="M39.969,59.587c7.334-3.803,14.604-7.571,21.941-11.376c-7.359-3.84-14.627-7.63-21.941-11.447
			C39.969,44.398,39.969,51.954,39.969,59.587z" />
		<path d="M48.875,0C21.883,0,0,21.882,0,48.875S21.883,97.75,48.875,97.75S97.75,75.868,97.75,48.875S75.867,0,48.875,0z
			 M82.176,65.189c-0.846,3.67-3.848,6.377-7.461,6.78c-8.557,0.957-17.217,0.962-25.842,0.957c-8.625,0.005-17.287,0-25.846-0.957
			c-3.613-0.403-6.613-3.11-7.457-6.78c-1.203-5.228-1.203-10.933-1.203-16.314s0.014-11.088,1.217-16.314
			c0.844-3.67,3.844-6.378,7.457-6.782c8.559-0.956,17.221-0.961,25.846-0.956c8.623-0.005,17.285,0,25.841,0.956
			c3.615,0.404,6.617,3.111,7.461,6.782c1.203,5.227,1.193,10.933,1.193,16.314S83.379,59.962,82.176,65.189z" />
	</g>
</g>
<g>
</g>
<g>
</g>
<g>
</g>
<g>
</g>
<g>
</g>
<g>
</g>
<g>
</g>
<g>
</g>
<g>
</g>
<g>
</g>
<g>
</g>
<g>
</g>
<g>
</g>
<g>
</g>
<g>
</g>
</symbol></defs></svg>